<svg xmlns="http://www.w3.org/2000/svg" xmlns:svg="http://www.w3.org/2000/svg" id="svg3004" width="128" height="128" version="1.1" xml:space="preserve"><metadata id="metadata3010"/><defs id="defs3008"><clipPath id="clipPath3018" clipPathUnits="userSpaceOnUse"><path id="path3020" d="M 58.666,117.332 C 26.266,117.332 0,91.066 0,58.666 l 0,0 C 0,26.266 26.266,0 58.666,0 l 0,0 c 32.399,0 58.666,26.266 58.666,58.666 l 0,0 c 0,32.4 -26.267,58.666 -58.666,58.666 z"/></clipPath><linearGradient id="linearGradient3026" x1="0" x2="1" y1="0" y2="0" gradientTransform="matrix(-5.1e-6,117.33154,117.33154,5.1e-6,58.666016,0)" gradientUnits="userSpaceOnUse" spreadMethod="pad"><stop style="stop-opacity:1;stop-color:#0882c8" id="stop3028" offset="0"/><stop style="stop-opacity:1;stop-color:#26b6db" id="stop3030" offset="1"/></linearGradient><clipPath id="clipPath3038" clipPathUnits="userSpaceOnUse"><path id="path3040" d="m 0,117.332 429.019,0 L 429.019,0 0,0 0,117.332 z"/></clipPath></defs><g id="g3012" transform="matrix(1.25,0,0,-1.25,0,146.665)"><g id="g3014" transform="matrix(0.87273719,0,0,0.87273719,0,14.932)"><g id="g3016" clip-path="url(#clipPath3018)"><g id="g3022"><g id="g3024"><path style="fill:url(#linearGradient3026);stroke:none" id="path3032" d="M 58.666,117.332 C 26.266,117.332 0,91.066 0,58.666 l 0,0 C 0,26.266 26.266,0 58.666,0 l 0,0 c 32.399,0 58.666,26.266 58.666,58.666 l 0,0 c 0,32.4 -26.267,58.666 -58.666,58.666 z"/></g></g></g></g><g id="g3042" transform="matrix(0.87273719,0,0,0.87273719,89.308943,66.317805)"><path style="fill:none;stroke:#fff;stroke-width:6;stroke-linecap:butt;stroke-linejoin:miter;stroke-miterlimit:10;stroke-opacity:1;stroke-dasharray:none" id="path3044" d="m 0,0 c 0,24.117 -19.551,43.666 -43.666,43.666 -24.117,0 -43.666,-19.549 -43.666,-43.666 0,-24.115 19.549,-43.666 43.666,-43.666 C -19.551,-43.666 0,-24.115 0,0 z"/></g><g id="g3046" transform="matrix(0.87273719,0,0,0.87273719,82.618537,75.575278)"><path style="fill:#fff;fill-opacity:1;fill-rule:nonzero;stroke:none" id="path3048" d="M 0,0 C 4.695,-1.625 9.82,0.865 11.447,5.562 13.072,10.256 10.578,15.385 5.883,17.008 1.187,18.635 -3.939,16.143 -5.564,11.445 -7.187,6.748 -4.697,1.623 0,0"/></g><g id="g3050" transform="matrix(0.87273719,0,0,0.87273719,85.165184,82.986737)"><path style="fill:none;stroke:#fff;stroke-width:6;stroke-linecap:butt;stroke-linejoin:miter;stroke-miterlimit:10;stroke-opacity:1;stroke-dasharray:none" id="path3052" d="M 0,0 -30.071,-25.042"/></g><g id="g3054" transform="matrix(0.87273719,0,0,0.87273719,67.710441,37.93168)"><path style="fill:#fff;fill-opacity:1;fill-rule:nonzero;stroke:none" id="path3056" d="m 0,0 c -0.445,-4.949 3.213,-9.32 8.158,-9.766 4.951,-0.443 9.326,3.213 9.768,8.162 0.443,4.948 -3.211,9.321 -8.16,9.766 C 4.814,8.604 0.441,4.951 0,0"/></g><g id="g3058" transform="matrix(0.87273719,0,0,0.87273719,75.517336,37.248151)"><path style="fill:none;stroke:#fff;stroke-width:6;stroke-linecap:butt;stroke-linejoin:miter;stroke-miterlimit:10;stroke-opacity:1;stroke-dasharray:none" id="path3060" d="M 0,0 -19.017,27.366"/></g><g id="g3062" transform="matrix(0.87273719,0,0,0.87273719,52.328447,56.86257)"><path style="fill:#fff;fill-opacity:1;fill-rule:nonzero;stroke:none" id="path3064" d="M 0,0 C 2.697,-4.17 8.27,-5.363 12.443,-2.664 16.615,0.033 17.809,5.609 15.107,9.779 12.408,13.953 6.834,15.146 2.662,12.445 -1.508,9.744 -2.703,4.172 0,0"/></g><g id="g3066" transform="matrix(0.87273719,0,0,0.87273719,18.462146,63.735376)"><path style="fill:#fff;fill-opacity:1;fill-rule:nonzero;stroke:none" id="path3068" d="m 0,0 c -4.266,2.541 -9.789,1.146 -12.338,-3.123 -2.541,-4.268 -1.148,-9.793 3.123,-12.336 4.268,-2.549 9.795,-1.148 12.338,3.123 C 5.668,-8.066 4.271,-2.543 0,0"/></g><g id="g3070" transform="matrix(0.87273719,0,0,0.87273719,14.461518,56.995576)"><path style="fill:none;stroke:#fff;stroke-width:6;stroke-linecap:butt;stroke-linejoin:miter;stroke-miterlimit:10;stroke-opacity:1;stroke-dasharray:none" id="path3072" d="M 0,0 50.942,4.739"/></g></g></svg>